{"title":"The Smurfs 2011 DVD9rip English Klam","uid":6717212,"size":1577055747,"categoryP":"video","categoryS":"movies","magnet":"?xt=urn:btih:663bf23ddd9470dfa69ef4470d40f16ac4a71430&amp;dn=The+Smurfs+2011+DVD9rip+English+Klam&amp;tr=udp%3A%2F%2Ftracker.openbittorrent.com%3A80&amp;tr=udp%3A%2F%2Fopen.demonii.com%3A1337&amp;tr=udp%3A%2F%2Ftracker.coppersurfer.tk%3A6969&amp;tr=udp%3A%2F%2Fexodus.desync.com%3A6969","seeders":0,"leechers":0,"uploader":"Klambake","files":-1,"time":1317630883,"description":"With: Hank Azaria, de stemmen van Jonathan Winters en Alan Cumming\n\nWanneer de kwade tovenaar Gargamel hun dorp aanvalt, ontsnappen de Smurfen via een magische doorgang, die &quot;eens per blauwe maan&quot; geopend is. Ze komen terecht in een vreemde, nieuwe wereld, die in niets lijkt op wat ze ooit hebben gezien: New York. Ze zitten vast in Manhattan en om weer thuis te komen moeten Grote Smurf en de anderen een echte blauwe maan zien te vinden - voordat Gargamel ze vindt.\n\nWhen the evil wizard Gargamel chases the tiny blue Smurfs out of their village, they tumble from their magical world and into ours. \n\n------------------ Dutch Friends ------------------\nYou can find my Friends at: http://www.Film-Test.nl \n------ They got my dutch subs ----- and more ------\n\nGeneral:\n\nComplete name                    : The Smurfs\\The Smurfs.avi\nFormat                           : AVI\nFormat/Info                      : Audio Video Interleave\nFile size                        : 1.47 GiB\nDuration                         : 1h 42mn\nOverall bit rate                 : 2 043 Kbps\n\nVideo:\n\nFormat                           : MPEG-4 Visual\nFormat profile                   : Simple@L3\nFormat settings, BVOP            : No\nFormat settings, QPel            : No\nFormat settings, GMC             : No warppoints\nFormat settings, Matrix          : Default (H.263)\nCodec ID                         : XVID\nCodec ID/Hint                    : XviD\nDuration                         : 1h 42mn\nBit rate                         : 1 585 Kbps\nWidth                            : 652 pixels\nHeight                           : 352 pixels\nDisplay aspect ratio             : 1.852\nFrame rate                       : 23.976 fps\nColor space                      : YUV\nChroma subsampling               : 4:2:0\nBit depth                        : 8 bits\nScan type                        : Progressive\nBits/(Pixel*Frame)               : 0.288\nStream size                      : 1.14 GiB (78%)\nWriting library                  : XviD 1.1.2 (UTC 2006-11-01)\n\nAudio:\n\nFormat                           : AC-3\nFormat/Info                      : Audio Coding 3\nMode extension                   : CM (complete main)\nCodec ID                         : 2000\nDuration                         : 1h 42mn\nBit rate mode                    : Constant\nBit rate                         : 448 Kbps\nChannel(s)                       : 6 channels\nChannel positions                : Front: L C R, Side: L R, LFE\nSampling rate                    : 48.0 KHz\nBit depth                        : 16 bits\nStream size                      : 330 MiB (22%)\nAlignment                        : Aligned on interleaves\nInterleave, duration             : 32 ms (0.77 video frame)\nInterleave, preload duration     : 32 ms\n\n","torrent":{"xt":"urn:btih:663bf23ddd9470dfa69ef4470d40f16ac4a71430","amp;dn":"The+Smurfs+2011+DVD9rip+English+Klam","amp;tr":["udp%3A%2F%2Ftracker.openbittorrent.com%3A80","udp%3A%2F%2Fopen.demonii.com%3A1337","udp%3A%2F%2Ftracker.coppersurfer.tk%3A6969","udp%3A%2F%2Fexodus.desync.com%3A6969"],"infoHash":"663bf23ddd9470dfa69ef4470d40f16ac4a71430","infoHashBuffer":{"type":"Buffer","data":[102,59,242,61,221,148,112,223,166,158,244,71,13,64,241,106,196,167,20,48]},"announce":[],"urlList":[]}}